<svg width="20" height="20" viewBox="0 0 20 20" fill="none" xmlns="http://www.w3.org/2000/svg">
<g id="icon-instagram" clip-path="url(#clip0_502_1313)">
<g id="Shape">
<path fill-rule="evenodd" clip-rule="evenodd" d="M8.11689 6.26549C8.8948 5.86185 9.78019 5.71377 10.6471 5.84232C11.5314 5.97345 12.3501 6.38551 12.9822 7.01764C13.6143 7.64977 14.0264 8.46845 14.1575 9.35274C14.2861 10.2197 14.138 11.105 13.7344 11.883C13.3307 12.6609 12.6921 13.2917 11.9092 13.6857C11.1264 14.0798 10.2392 14.2169 9.37397 14.0777C8.5087 13.9384 7.70936 13.5299 7.08965 12.9102C6.46994 12.2905 6.06142 11.4911 5.92218 10.6259C5.78295 9.76061 5.9201 8.87346 6.31412 8.09063C6.70814 7.3078 7.33897 6.66914 8.11689 6.26549ZM10.4026 7.49096C9.88249 7.41383 9.35126 7.50268 8.88451 7.74486C8.41776 7.98705 8.03926 8.37025 7.80284 8.83995C7.56643 9.30965 7.48414 9.84193 7.56768 10.3611C7.65122 10.8803 7.89634 11.3599 8.26817 11.7317C8.63999 12.1035 9.11959 12.3486 9.63876 12.4322C10.1579 12.5157 10.6902 12.4334 11.1599 12.197C11.6296 11.9606 12.0128 11.5821 12.255 11.1153C12.4972 10.6486 12.586 10.1174 12.5089 9.59721C12.4302 9.06664 12.183 8.57543 11.8037 8.19615C11.4244 7.81688 10.9332 7.56964 10.4026 7.49096Z" fill="#12F7D6"/>
<path d="M14.5833 4.58331C14.123 4.58331 13.7499 4.95641 13.7499 5.41665C13.7499 5.87688 14.123 6.24998 14.5833 6.24998H14.5916C15.0518 6.24998 15.4249 5.87688 15.4249 5.41665C15.4249 4.95641 15.0518 4.58331 14.5916 4.58331H14.5833Z" fill="#12F7D6"/>
<path fill-rule="evenodd" clip-rule="evenodd" d="M0.833252 5.83331C0.833252 3.07189 3.07183 0.833313 5.83325 0.833313H14.1666C16.928 0.833313 19.1666 3.07189 19.1666 5.83331V14.1666C19.1666 16.9281 16.928 19.1666 14.1666 19.1666H5.83325C3.07183 19.1666 0.833252 16.9281 0.833252 14.1666V5.83331ZM5.83325 2.49998C3.9923 2.49998 2.49992 3.99236 2.49992 5.83331V14.1666C2.49992 16.0076 3.9923 17.5 5.83325 17.5H14.1666C16.0075 17.5 17.4999 16.0076 17.4999 14.1666V5.83331C17.4999 3.99236 16.0075 2.49998 14.1666 2.49998H5.83325Z" fill="#12F7D6"/>
</g>
</g>
<defs>
<clipPath id="clip0_502_1313">
<rect width="20" height="20" fill="white"/>
</clipPath>
</defs>
</svg>
